<?xml version="1.0" encoding="UTF-8"?>
<svg width="373" height="475" viewBox="0 0 373 475" xmlns="http://www.w3.org/2000/svg">
    <path id="Mergify" fill="#000000" fill-rule="evenodd" stroke="none" d="M 354.33844 395.022888 L 341.932739 428.483459 L 329.666595 394.936157 L 311.330719 394.871674 L 332.940643 446.691956 L 320.556885 473.912598 L 338.220764 473.974701 L 372.098358 395.085327 Z M 284.456268 393.24115 L 284.450867 394.777161 L 278.498932 394.756226 L 278.450989 408.388153 L 284.402954 408.409058 L 284.262543 448.344818 L 300.678467 448.402557 L 300.818848 408.466797 L 309.650818 408.497833 L 309.69873 394.865936 L 300.866791 394.8349 L 300.868469 394.354858 C 300.888397 388.690918 303.103119 386.778687 309.437714 387.184967 L 309.486664 373.265045 C 293.16983 372.343689 284.505554 379.225281 284.456268 393.24115 Z M 254.499069 394.671875 L 254.31073 448.239532 L 270.726624 448.297241 L 270.914948 394.729584 Z M 262.774597 389.132935 C 268.534546 389.153198 272.484375 385.231049 272.501587 380.335052 C 272.519135 375.343109 268.596985 371.39328 262.837036 371.373047 C 256.981049 371.352448 253.031265 375.274597 253.013702 380.266541 C 252.99649 385.162537 256.91861 389.112335 262.774597 389.132935 Z M 209.670044 393.746246 C 196.518127 393.700012 186.017059 404.223145 185.957657 421.119019 C 185.898254 438.014923 196.324402 448.80365 209.476303 448.849915 C 217.348251 448.877594 223.025375 445.153503 226.017899 440.460022 L 225.991241 448.043945 C 225.959503 457.067902 221.052063 460.314667 214.812119 460.292725 C 209.148148 460.272797 205.12529 457.666656 204.08345 453.630951 L 187.859558 453.573914 C 189.254654 466.346924 199.594254 474.447296 215.530151 474.503326 C 234.058029 474.568481 242.356842 462.405579 242.407135 448.101654 L 242.595139 394.630005 L 226.17923 394.572296 L 226.152573 402.15625 C 223.289474 397.34613 217.541992 393.773926 209.670044 393.746246 Z M 226.085068 421.35614 C 226.055023 429.900085 220.566528 434.584778 214.326569 434.562866 C 208.182617 434.54126 202.631516 429.72171 202.661545 421.177765 C 202.691589 412.63382 208.275772 408.045441 214.419724 408.067047 C 220.659683 408.088989 226.115097 412.812164 226.085068 421.35614 Z M 164.542694 423.059753 C 164.575104 413.843811 169.096527 411.171692 176.872482 411.199036 L 181.384445 411.214905 L 181.445541 393.83902 C 174.24559 393.813721 168.376129 397.633057 164.612228 403.283875 L 164.643616 394.355957 L 148.227722 394.298218 L 148.039383 447.865906 L 164.455276 447.923615 Z M 112.664406 406.557281 C 118.136368 406.576508 122.732529 409.952667 122.711937 415.808655 L 102.168068 415.73642 C 103.148987 409.787842 107.288437 406.538391 112.664406 406.557281 Z M 138.213882 430.071228 L 120.741997 430.009796 C 119.387878 432.885071 116.787796 435.179962 112.179825 435.163757 C 106.899857 435.145172 102.591354 431.865997 102.040001 424.856018 L 139.191772 424.986664 C 139.389511 423.355316 139.491241 421.723663 139.496643 420.187683 C 139.554016 403.867767 128.550552 393.461029 112.902641 393.406006 C 96.966736 393.349976 85.793686 403.870789 85.73394 420.862671 C 85.674202 437.854584 96.965004 448.454346 112.708908 448.509674 C 126.052826 448.55661 135.585114 440.526062 138.213882 430.071228 Z M 1.013235 379.956543 L 0.776297 447.348145 L 17.192194 447.405853 L 17.334627 406.894104 L 32.360104 447.459167 L 45.608021 447.505768 L 60.822021 407.142975 L 60.679928 447.558746 L 77.095825 447.616455 L 77.332764 380.224884 L 58.03688 380.157043 L 39.152966 426.746948 L 20.405115 380.024719 Z"/>
    <g id="logo">
        <path id="white-circle-bg" fill="#ffffff" stroke="none" d="M 297.961823 167.402405 C 297.745575 228.906921 247.711029 278.590881 186.206512 278.374634 C 124.701996 278.158386 75.018036 228.12384 75.234276 166.619324 C 75.450516 105.114807 125.485069 55.430847 186.989594 55.647095 C 248.49411 55.863342 298.17804 105.897888 297.961823 167.402405 Z"/>
        <path id="Path" fill="#28abe1" stroke="none" d="M 162.997925 1.4711 C 126.545357 7.22937 95.308121 22.869781 69.284546 48.869476 C 46.774387 71.063416 31.886621 97.261444 23.982641 128.097687 C 19.141109 147.649139 19.009106 185.194611 23.713039 204.779602 C 31.399996 235.670715 46.10318 261.972748 68.456726 284.324371 C 90.650612 306.834534 116.848625 321.722321 147.684906 329.626251 C 167.236328 334.467773 204.78183 334.599792 224.366806 329.895874 C 255.257889 322.208923 281.559967 307.505737 303.911591 285.152191 C 326.421722 262.958313 341.309479 236.7603 349.21344 205.924011 C 354.054993 186.372589 354.186981 148.827118 349.483063 129.242096 C 341.796112 98.351044 327.092926 72.048981 304.73941 49.697296 C 282.70401 27.346832 256.188965 12.139771 226.305557 4.716431 C 211.522934 1.00531 177.164856 -0.706421 162.997925 1.4711 M 137.21109 95.881714 C 139.592987 97.162842 142.766418 99.560364 144.351181 101.315948 C 147.04509 104.348206 147.681473 104.350464 154.689301 102.147797 C 163.767578 99.31604 175.695496 100.471619 182.839493 104.792267 C 188.078873 107.833435 188.237946 107.833984 198.112213 104.845947 C 225.506104 96.351227 244.898453 101.1922 254.065308 118.406464 C 257.225342 124.622223 257.533417 127.486969 257.899414 159.147797 L 258.257538 193.035889 L 263.647614 198.46402 C 273.159546 208.04303 274.230682 220.137863 266.398254 230.610474 C 252.172043 249.651627 222.933395 239.844147 223.017853 215.821411 C 223.046387 207.707733 227.374283 198.495544 231.99408 196.76178 C 234.065063 195.973602 234.39946 191.361084 234.021759 163.041168 L 233.659698 130.266693 L 229.218597 126.432892 C 224.142746 122.119537 215.872253 121.454071 205.042862 124.597839 L 198.831604 126.485138 L 199.188644 160.691376 C 199.548996 193.943115 199.546204 194.738586 203.195221 197.615082 C 212.397354 204.80661 213.770432 221.51622 205.941971 230.875198 C 190.924759 248.640808 162.479904 239.313416 162.559326 216.722473 C 162.588974 208.290649 164.355743 203.524078 169.622528 198.769806 L 173.772873 194.807068 L 173.889221 161.716125 C 173.997726 130.852448 173.846466 128.624573 170.834381 125.591217 C 167.663727 122.398193 160.826187 121.419617 153.978546 123.304657 C 152.226868 123.775818 149.353165 126.629364 147.751617 129.646515 C 146.149506 132.822723 143.433792 135.995056 141.840088 136.784912 C 139.289612 138.207794 138.961899 140.911194 138.870163 167.002136 C 138.786819 190.706726 139.087128 195.798767 141.153061 196.442413 C 145.601456 198.208069 149.864471 207.450439 149.835953 215.564117 C 149.751495 239.586853 120.444595 249.188492 106.352615 230.047775 C 98.594063 219.520355 99.750206 207.43335 109.329796 197.76236 L 114.917 192.372833 L 115.00705 166.759155 L 115.097107 141.145477 L 109.547935 135.716827 C 97.340988 123.423737 99.472382 105.453674 114.299171 96.596588 C 120.197845 93.11731 131.176819 92.67865 137.21109 95.881714"/>
        <path id="path1" fill="#28abe1" stroke="none" d="M 116.801842 108.776031 C 107.382469 118.129395 112.58046 132.94339 125.307739 132.988129 C 132.944122 133.014984 135.653137 131.751709 138.217056 126.510681 C 143.501724 116.665497 138.605133 106.625427 127.634018 104.836823 C 122.545906 104.023438 121.111847 104.654785 116.801842 108.776031"/>
        <path id="path2" fill="#28abe1" stroke="none" d="M 115.665466 205.739288 C 109.918053 211.446442 110.207146 219.720291 116.389893 225.946655 C 120.670807 230.098114 122.100395 230.739532 127.194115 229.961975 C 134.03894 228.872375 140.26532 222.689636 140.286011 216.803284 C 140.303909 211.712372 136.35347 204.062012 133.176132 202.778076 C 127.297592 200.530121 119.497643 201.775452 115.665466 205.739288"/>
        <path id="path3" fill="#28abe1" stroke="none" d="M 176.275833 206.906921 C 168.447922 216.106812 173.019058 228.213959 185.103271 230.165573 C 190.191376 230.978912 191.625427 230.34758 195.935455 226.226318 C 205.674133 216.555878 200.15683 202.059021 186.634094 202.011475 C 181.543182 201.993561 179.630722 202.941406 176.275833 206.906921"/>
        <path id="path4" fill="#28abe1" stroke="none" d="M 239.289337 203.310242 C 236.421783 204.413818 232.575638 212.35495 232.558853 217.127686 C 232.538162 223.014053 238.720901 229.240417 245.557907 230.378113 C 250.646011 231.191467 252.080063 230.560135 256.390076 226.438858 C 265.969666 216.767883 260.61203 202.112457 247.406342 202.384216 C 244.06543 202.372467 240.404648 202.836884 239.289337 203.310242"/>
    </g>
</svg>
