<svg width="25" height="25" viewBox="0 0 25 25" fill="none" xmlns="http://www.w3.org/2000/svg">
<g clip-path="url(#clip0_11888_7119)">
<path d="M25 12.5C25 19.4036 19.4036 25 12.5 25C5.59644 25 0 19.4036 0 12.5C0 5.59644 5.59644 0 12.5 0C19.4036 0 25 5.59644 25 12.5Z" fill="white" fill-opacity="0.8"/>
<path d="M24 12.5C24 18.8513 18.8513 24 12.5 24C6.14873 24 1 18.8513 1 12.5C1 6.14873 6.14873 1 12.5 1C18.8513 1 24 6.14873 24 12.5Z" fill="white"/>
<path fill-rule="evenodd" clip-rule="evenodd" d="M12.5 24C18.8513 24 24 18.8513 24 12.5C24 6.14873 18.8513 1 12.5 1C6.14873 1 1 6.14873 1 12.5C1 18.8513 6.14873 24 12.5 24ZM6.8267 10.9694C6.1768 10.7221 5.71502 10.0933 5.71502 9.35659C5.71502 8.4039 6.48733 7.63159 7.44002 7.63159C8.30204 7.63159 9.01638 8.26389 9.14454 9.08999C9.24056 9.02207 9.34194 8.96014 9.4487 8.90422C9.87803 8.66911 10.3636 8.55155 10.9054 8.55155C11.4165 8.55155 11.8816 8.66911 12.3007 8.90422C12.6519 9.09269 12.9421 9.34935 13.1713 9.67421C13.4191 9.35804 13.7217 9.10649 14.0794 8.91955C14.5291 8.67422 15.03 8.55155 15.582 8.55155C16.134 8.55155 16.6298 8.66911 17.0694 8.90422C17.5089 9.12911 17.8565 9.45622 18.112 9.88555C18.3676 10.3149 18.4954 10.826 18.4954 11.4189V14.2461C18.9274 14.5596 19.2084 15.0686 19.2084 15.6432C19.2084 16.5959 18.4361 17.3682 17.4834 17.3682C16.5307 17.3682 15.7584 16.5959 15.7584 15.6432C15.7584 15.0618 16.046 14.5476 16.4867 14.2351V11.7409C16.4867 11.3116 16.3487 10.9793 16.0727 10.7442C15.8069 10.4989 15.4747 10.3762 15.076 10.3762C14.8205 10.3762 14.5803 10.4324 14.3554 10.5449C14.1407 10.6471 13.972 10.8004 13.8494 11.0049C13.7267 11.2093 13.6654 11.4547 13.6654 11.7409V14.2461C14.0974 14.5596 14.3783 15.0686 14.3783 15.6432C14.3783 16.5959 13.606 17.3682 12.6533 17.3682C11.7007 17.3682 10.9283 16.5959 10.9283 15.6432C10.9283 15.0618 11.216 14.5476 11.6567 14.2351V11.7409C11.6567 11.3116 11.5187 10.9793 11.2427 10.7442C10.9769 10.4989 10.6447 10.3762 10.246 10.3762C9.98025 10.3762 9.74003 10.4324 9.52536 10.5449C9.3107 10.6471 9.14203 10.8004 9.01936 11.0049C8.8967 11.2093 8.83536 11.4547 8.83536 11.7409V14.2461C9.2674 14.5596 9.54835 15.0686 9.54835 15.6432C9.54835 16.5959 8.77604 17.3682 7.82335 17.3682C6.87066 17.3682 6.09835 16.5959 6.09835 15.6432C6.09835 15.0618 6.38598 14.5476 6.8267 14.2351V10.9694Z" fill="black"/>
</g>
<defs>
<clipPath id="clip0_11888_7119">
<path d="M0 12.5C0 8.30236 0 6.20354 0.768086 4.57956C1.55942 2.90642 2.90642 1.55942 4.57956 0.768086C6.20354 0 8.30236 0 12.5 0V0C16.6976 0 18.7965 0 20.4204 0.768086C22.0936 1.55942 23.4406 2.90642 24.2319 4.57956C25 6.20354 25 8.30236 25 12.5V12.5C25 16.6976 25 18.7965 24.2319 20.4204C23.4406 22.0936 22.0936 23.4406 20.4204 24.2319C18.7965 25 16.6976 25 12.5 25V25C8.30236 25 6.20354 25 4.57956 24.2319C2.90642 23.4406 1.55942 22.0936 0.768086 20.4204C0 18.7965 0 16.6976 0 12.5V12.5Z" fill="white"/>
</clipPath>
</defs>
</svg>
