<?xml version="1.0" encoding="UTF-8"?>
<svg width="1066" height="280" viewBox="0 0 1066 280" xmlns="http://www.w3.org/2000/svg" xmlns:xlink="http://www.w3.org/1999/xlink">
    <path id="Mergify" fill="#000000" fill-rule="evenodd" stroke="none" d="M 1019.253357 103.58667 L 992.186646 175.82666 L 965.493347 103.58667 L 936.186646 103.58667 L 977.626648 204.386658 L 955.226685 255.906662 L 983.039978 255.906662 L 1047.06665 103.58667 Z M 886.533325 98.360001 L 886.533325 103.58667 L 874.773315 103.58667 L 874.773315 125.053329 L 886.533325 125.053329 L 886.533325 207 L 913.039978 207 L 913.039978 125.053329 L 931.146667 125.053329 L 931.146667 103.58667 L 913.039978 103.58667 L 913.039978 99.293335 C 913.039978 87.720001 917.333313 83.613327 930.026672 83.986664 L 930.026672 61.960007 C 900.906677 61.213333 886.533325 72.973328 886.533325 98.360001 Z M 831.840027 103.58667 L 831.840027 207 L 857.973328 207 L 857.973328 103.58667 Z M 845.093323 91.266663 C 854.23999 91.266663 861.146667 84.546661 861.146667 75.960007 C 861.146667 67.373337 854.23999 60.653336 845.093323 60.653336 C 835.76001 60.653336 829.039978 67.373337 829.039978 75.960007 C 829.039978 84.546661 835.76001 91.266663 845.093323 91.266663 Z M 745.786682 101.906662 C 719.466675 101.906662 698.559998 122.626663 698.559998 154.919998 C 698.559998 187.213333 719.466675 208.679993 745.786682 208.679993 C 762.026672 208.679993 773.786682 200.653336 779.946655 191.693329 L 779.946655 207.746674 C 779.946655 226.973328 768.746643 235.186676 754.373352 235.186676 C 741.306641 235.186676 731.599976 229.026672 728.986694 219.693329 L 703.039978 219.693329 C 705.65332 243.399994 726 257.959991 755.119995 257.959991 C 789.093323 257.959991 806.266663 235.746674 806.266663 207.746674 L 806.266663 103.58667 L 779.946655 103.58667 L 779.946655 118.333328 C 773.786682 109.373337 762.026672 101.906662 745.786682 101.906662 Z M 779.946655 155.293335 C 779.946655 174.893341 766.880005 185.720001 752.506653 185.720001 C 738.506653 185.720001 725.253357 174.519989 725.253357 154.919998 C 725.253357 135.320007 738.506653 124.866669 752.506653 124.866669 C 766.880005 124.866669 779.946655 135.693329 779.946655 155.293335 Z M 656 155.480011 C 656 135.506668 665.333313 129.53334 680.82666 129.53334 L 687.733337 129.53334 L 687.733337 102.093338 C 673.359985 102.093338 662.533325 109 656 119.639999 L 656 103.58667 L 629.866638 103.58667 L 629.866638 207 L 656 207 Z M 559.119995 123.373337 C 572.559998 123.373337 583.386658 131.960007 583.76001 145.58667 L 534.666687 145.58667 C 536.719971 131.399994 546.613342 123.373337 559.119995 123.373337 Z M 608.213318 174.519989 L 580.026672 174.519989 C 576.666687 181.426666 570.506653 187.026672 559.306641 187.026672 C 546.23999 187.026672 535.786682 178.440002 534.47998 163.133331 L 610.080017 163.133331 C 610.640015 159.773331 610.82666 156.41333 610.82666 153.053345 C 610.82666 122.253326 589.733337 101.906662 559.866638 101.906662 C 529.253357 101.906662 507.973328 122.626663 507.973328 155.293335 C 507.973328 187.773331 529.813354 208.679993 559.866638 208.679993 C 585.440002 208.679993 602.613342 193.559998 608.213318 174.519989 Z M 346.880005 76.706665 L 346.880005 207 L 373.013336 207 L 373.013336 122.253326 L 408.106659 207 L 427.893341 207 L 462.799988 122.253326 L 462.799988 207 L 488.933319 207 L 488.933319 76.706665 L 459.440002 76.706665 L 418 173.58667 L 376.559998 76.706665 Z"/>
    <path id="white-circle-bg" fill="#ffffff" stroke="none" d="M 233.333328 140 C 233.333328 191.54657 191.54657 233.333328 140 233.333328 C 88.453423 233.333328 46.666668 191.54657 46.666668 140 C 46.666668 88.453415 88.453423 46.666672 140 46.666672 C 191.54657 46.666672 233.333328 88.453415 233.333328 140 Z"/>
    <g id="logo">
        <path id="Path" fill="#28abe1" stroke="none" d="M 119.73333 1.333344 C 89.199997 6.266663 63.066666 19.466675 41.333332 41.333328 C 22.533333 60 10.133333 82 3.6 107.866669 C -0.4 124.266663 -0.4 155.733337 3.6 172.133331 C 10.133333 198 22.533333 220 41.333332 238.666672 C 60 257.466675 82 269.866669 107.866669 276.399994 C 124.26667 280.399994 155.733337 280.399994 172.133331 276.399994 C 198 269.866669 220 257.466675 238.666672 238.666672 C 257.466675 220 269.866669 198 276.399994 172.133331 C 280.399994 155.733337 280.399994 124.266663 276.399994 107.866669 C 269.866669 82 257.466675 60 238.666672 41.333328 C 220.133331 22.666656 197.866669 10 172.800003 3.866669 C 160.399994 0.799988 131.600006 -0.533325 119.73333 1.333344 M 98.400002 80.53334 C 100.400002 81.600006 103.066666 83.600006 104.400002 85.066666 C 106.666664 87.600006 107.199997 87.600006 113.066666 85.733337 C 120.666664 83.333328 130.666672 84.266663 136.666672 87.866669 C 141.066666 90.399994 141.199997 90.399994 149.46666 87.866669 C 172.399994 80.666672 188.666672 84.666672 196.399994 99.066666 C 199.066666 104.266663 199.333328 106.666672 199.733337 133.199997 L 200.133331 161.600006 L 204.666672 166.133331 C 212.666672 174.133331 213.600006 184.266663 207.066666 193.066666 C 195.199997 209.066666 170.666672 200.933334 170.666672 180.800003 C 170.666672 174 174.266663 166.266663 178.133331 164.800003 C 179.866669 164.133331 180.133331 160.266663 179.733337 136.53334 L 179.333328 109.066666 L 175.600006 105.866669 C 171.333328 102.266663 164.399994 101.733337 155.333328 104.399994 L 150.133331 106 L 150.53334 134.666672 C 150.933334 162.533325 150.933334 163.199997 154 165.600006 C 161.733337 171.600006 162.933334 185.600006 156.399994 193.466675 C 143.866669 208.399994 120 200.666656 120 181.733337 C 120 174.666656 121.466667 170.666656 125.866669 166.666656 L 129.333328 163.333344 L 129.333328 135.600006 C 129.333328 109.733337 129.199997 107.866669 126.666664 105.333328 C 124 102.666672 118.26667 101.866669 112.533333 103.46666 C 111.066666 103.866669 108.666664 106.266663 107.333336 108.800003 C 106 111.46666 103.73333 114.133331 102.400002 114.800003 C 100.26667 116 100 118.266663 100 140.133331 C 100 160 100.26667 164.266663 102 164.800003 C 105.73333 166.266663 109.333336 174 109.333336 180.800003 C 109.333336 200.933334 84.800003 209.066666 72.933334 193.066666 C 66.400002 184.266663 67.333336 174.133331 75.333336 166 L 80 161.466675 L 80 140 L 80 118.53334 L 75.333336 114 C 65.066666 103.733337 66.800003 88.666672 79.199997 81.199997 C 84.133331 78.266663 93.333336 77.866669 98.400002 80.53334"/>
        <path id="path1" fill="#28abe1" stroke="none" d="M 81.333336 91.399994 C 73.466667 99.266663 77.866669 111.666672 88.533333 111.666672 C 94.933334 111.666672 97.199997 110.600006 99.333336 106.199997 C 103.73333 97.933334 99.599998 89.53334 90.400002 88.066666 C 86.133331 87.399994 84.933334 87.933334 81.333336 91.399994"/>
        <path id="path2" fill="#28abe1" stroke="none" d="M 80.666664 172.666656 C 75.866669 177.466675 76.133331 184.399994 81.333336 189.600006 C 84.933334 193.066666 86.133331 193.600006 90.400002 192.933334 C 96.133331 192 101.333336 186.800003 101.333336 181.866669 C 101.333336 177.600006 98 171.199997 95.333336 170.133331 C 90.400002 168.266663 83.866669 169.333344 80.666664 172.666656"/>
        <path id="path3" fill="#28abe1" stroke="none" d="M 131.46666 173.466675 C 124.933334 181.199997 128.800003 191.333344 138.933334 192.933334 C 143.199997 193.600006 144.399994 193.066666 148 189.600006 C 156.133331 181.466675 151.46666 169.333344 140.133331 169.333344 C 135.866669 169.333344 134.266663 170.133331 131.46666 173.466675"/>
        <path id="path4" fill="#28abe1" stroke="none" d="M 184.266663 170.266663 C 181.866669 171.199997 178.666672 177.866669 178.666672 181.866669 C 178.666672 186.800003 183.866669 192 189.600006 192.933334 C 193.866669 193.600006 195.066666 193.066666 198.666672 189.600006 C 206.666672 181.466675 202.133331 169.199997 191.066666 169.466675 C 188.266663 169.466675 185.199997 169.866669 184.266663 170.266663"/>
    </g>
</svg>
