<?xml version="1.0" encoding="UTF-8"?>
<svg width="373" height="412" viewBox="0 0 373 412" xmlns="http://www.w3.org/2000/svg">
    <path id="Mergify" fill="#000000" fill-rule="evenodd" stroke="none" d="M 354.783997 332.432007 L 342.496002 365.936005 L 330.112 332.432007 L 311.776001 332.432007 L 333.567993 384.175995 L 321.279999 411.440002 L 338.944 411.440002 L 372.544006 332.432007 Z M 284.895996 330.895996 L 284.895996 332.432007 L 278.944 332.432007 L 278.944 346.063995 L 284.895996 346.063995 L 284.895996 386 L 301.312012 386 L 301.312012 346.063995 L 310.144012 346.063995 L 310.144012 332.432007 L 301.312012 332.432007 L 301.312012 331.951996 C 301.312012 326.287994 303.519989 324.367981 309.855988 324.752014 L 309.855988 310.832001 C 293.536011 309.968018 284.895996 316.880005 284.895996 330.895996 Z M 254.944 332.432007 L 254.944 386 L 271.359985 386 L 271.359985 332.432007 Z M 263.200012 326.864014 C 268.959991 326.864014 272.895996 322.928009 272.895996 318.031982 C 272.895996 313.040009 268.959991 309.104004 263.200012 309.104004 C 257.343994 309.104004 253.408005 313.040009 253.408005 318.031982 C 253.408005 322.928009 257.343994 326.864014 263.200012 326.864014 Z M 210.112 331.664001 C 196.960007 331.664001 186.496002 342.223999 186.496002 359.119995 C 186.496002 376.015991 196.960007 386.768005 210.112 386.768005 C 217.983994 386.768005 223.647995 383.023987 226.623993 378.320007 L 226.623993 385.903992 C 226.623993 394.928009 221.727997 398.191986 215.488007 398.191986 C 209.824005 398.191986 205.792007 395.600006 204.735992 391.567993 L 188.511993 391.567993 C 189.951996 404.335999 200.320007 412.399994 216.255997 412.399994 C 234.783997 412.399994 243.039993 400.208008 243.039993 385.903992 L 243.039993 332.432007 L 226.623993 332.432007 L 226.623993 340.015991 C 223.744003 335.216003 217.983994 331.664001 210.112 331.664001 Z M 226.623993 359.216003 C 226.623993 367.76001 221.151993 372.463989 214.912003 372.463989 C 208.768005 372.463989 203.199997 367.664001 203.199997 359.119995 C 203.199997 350.575989 208.768005 345.968018 214.912003 345.968018 C 221.151993 345.968018 226.623993 350.671997 226.623993 359.216003 Z M 165.087997 361.135986 C 165.087997 351.919983 169.600006 349.231995 177.376007 349.231995 L 181.888 349.231995 L 181.888 331.856018 C 174.688004 331.856018 168.832001 335.695984 165.087997 341.359985 L 165.087997 332.432007 L 148.671997 332.432007 L 148.671997 386 L 165.087997 386 Z M 113.152 344.81601 C 118.624001 344.81601 123.232002 348.175995 123.232002 354.032013 L 102.688004 354.032013 C 103.648003 348.080017 107.776001 344.81601 113.152 344.81601 Z M 138.783997 368.23999 L 121.311996 368.23999 C 119.968002 371.119995 117.375999 373.424011 112.767998 373.424011 C 107.487999 373.424011 103.167999 370.160004 102.592003 363.152008 L 139.744003 363.152008 C 139.936005 361.519989 140.031998 359.888 140.031998 358.35199 C 140.031998 342.031982 128.992004 331.664001 113.344002 331.664001 C 97.407997 331.664001 86.272003 342.223999 86.272003 359.216003 C 86.272003 376.208008 97.599998 386.768005 113.344002 386.768005 C 126.688004 386.768005 136.192001 378.70401 138.783997 368.23999 Z M 1.408 318.608002 L 1.408 386 L 17.823999 386 L 17.823999 345.488007 L 32.992001 386 L 46.240002 386 L 61.312 345.583984 L 61.312 386 L 77.727997 386 L 77.727997 318.608002 L 58.431999 318.608002 L 39.712002 365.264008 L 20.799999 318.608002 Z"/>
    <path id="white-circle-bg" fill="#ffffff" stroke="none" d="M 287.265167 151.109863 C 287.265167 206.760941 242.151077 251.875046 186.5 251.875046 C 130.848923 251.875046 85.734818 206.760941 85.734818 151.109863 C 85.734818 95.458801 130.848923 50.344696 186.5 50.344696 C 242.151077 50.344696 287.265167 95.458801 287.265167 151.109863 Z"/>
    <g id="logo">
        <path id="Path" fill="#28abe1" stroke="none" d="M 164.619568 1.401611 C 131.654953 6.727753 103.440697 20.978851 79.976814 44.586639 C 59.679821 64.739716 46.292446 88.491516 39.23888 116.417847 C 34.920372 134.123749 34.920372 168.095993 39.23888 185.80188 C 46.292446 213.728241 59.679821 237.480026 79.976814 257.633057 C 100.129845 277.930054 123.881638 291.317444 151.807999 298.370972 C 169.513885 302.689484 203.486145 302.689484 221.192017 298.370972 C 249.118362 291.317444 272.870178 277.930054 293.023224 257.633057 C 313.32019 237.480026 326.70755 213.728241 333.761108 185.80188 C 338.07962 168.095993 338.07962 134.123749 333.761108 116.417847 C 326.70755 88.491516 313.32019 64.739716 293.023224 44.586639 C 273.014099 24.433624 248.974426 10.758362 221.911774 4.136658 C 208.524384 0.825775 177.431137 -0.613708 164.619568 1.401611 M 141.587524 86.908051 C 143.74678 88.059662 146.625778 90.218903 148.065292 91.802338 C 150.512436 94.537415 151.088242 94.537415 157.422043 92.522125 C 165.627228 89.931 176.423492 90.93866 182.90126 94.825317 C 187.651611 97.560364 187.795547 97.560364 196.720459 94.825317 C 221.479919 87.052002 239.041855 91.370514 247.390961 106.917114 C 250.269974 112.531189 250.557861 115.122284 250.989731 143.768402 L 251.42157 174.42981 L 256.315887 179.324127 C 264.952911 187.961136 265.960571 198.901352 258.906982 208.402069 C 246.095413 225.676102 219.608566 216.895142 219.608566 195.158661 C 219.608566 187.817184 223.495224 179.468063 227.669785 177.884628 C 229.541138 177.164871 229.829025 172.990311 229.397186 147.367157 L 228.965332 117.713379 L 224.934738 114.258606 C 220.328308 110.371948 212.842896 109.796143 203.054276 112.67514 L 197.440216 114.402557 L 197.872086 145.351837 C 198.303925 175.437454 198.303925 176.157211 201.614777 178.748306 C 209.963898 185.226074 211.259445 200.340851 204.205887 208.833923 C 190.674561 224.956345 164.907471 216.607239 164.907471 196.16629 C 164.907471 188.536926 166.490921 184.21843 171.241272 179.899918 L 174.983978 176.301163 L 174.983978 146.359528 C 174.983978 118.433167 174.840027 116.417847 172.10498 113.68277 C 169.225967 110.803772 163.036118 109.940094 156.846252 111.66748 C 155.262802 112.099365 152.671692 114.69046 151.232193 117.425507 C 149.792679 120.304504 147.345535 123.183533 145.906036 123.903259 C 143.602844 125.198822 143.314926 127.645966 143.314926 151.253815 C 143.314926 172.702408 143.602844 177.308823 145.474182 177.884628 C 149.504791 179.468063 153.391449 187.817184 153.391449 195.158661 C 153.391449 216.895142 126.904594 225.676102 114.093025 208.402069 C 107.039459 198.901352 108.047112 187.961136 116.684128 179.180176 L 121.722382 174.285858 L 121.722382 151.109863 L 121.722382 127.933868 L 116.684128 123.039581 C 105.599953 111.955414 107.471313 95.688995 120.858681 87.627777 C 126.184837 84.460907 136.117416 84.029053 141.587524 86.908051"/>
        <path id="path1" fill="#28abe1" stroke="none" d="M 123.161888 98.639984 C 114.668823 107.133057 119.419182 120.520477 130.935196 120.520477 C 137.844818 120.520477 140.291962 119.368835 142.595169 114.6185 C 147.34552 105.693573 142.883057 96.624725 132.9505 95.04126 C 128.344101 94.321472 127.048546 94.897308 123.161888 98.639984"/>
        <path id="path2" fill="#28abe1" stroke="none" d="M 122.442131 186.377686 C 117.259926 191.559906 117.547821 199.045319 123.161888 204.659378 C 127.048546 208.402069 128.344101 208.97789 132.950516 208.258133 C 139.140366 207.250473 144.75444 201.636414 144.75444 196.310257 C 144.75444 191.703857 141.15567 184.794235 138.276672 183.642624 C 132.950516 181.627335 125.896942 182.778946 122.442131 186.377686"/>
        <path id="path3" fill="#28abe1" stroke="none" d="M 177.287186 187.241379 C 170.233627 195.5905 174.408188 206.530716 185.348404 208.258133 C 189.954803 208.977875 191.250351 208.402069 195.137024 204.659363 C 203.917984 195.878403 198.879715 182.778931 186.643951 182.778931 C 182.037552 182.778931 180.310135 183.642624 177.287186 187.241379"/>
        <path id="path4" fill="#28abe1" stroke="none" d="M 234.291489 183.786575 C 231.700394 184.794235 228.24559 191.991745 228.24559 196.310257 C 228.24559 201.636414 233.85965 207.250473 240.049515 208.258133 C 244.655914 208.977875 245.951462 208.402069 249.83812 204.659363 C 258.475128 195.878403 253.580826 182.634979 241.63295 182.922867 C 238.610001 182.922867 235.299133 183.354736 234.291489 183.786575"/>
    </g>
</svg>
