<svg width="25" height="25" viewBox="0 0 25 25" fill="none" xmlns="http://www.w3.org/2000/svg">
<g clip-path="url(#clip0_11723_47667)">
<path fill-rule="evenodd" clip-rule="evenodd" d="M12.5 25C19.4036 25 25 19.4036 25 12.5C25 5.59644 19.4036 0 12.5 0C5.59644 0 0 5.59644 0 12.5C0 19.4036 5.59644 25 12.5 25ZM6.33336 10.8363C5.62696 10.5675 5.12502 9.88399 5.12502 9.08325C5.12502 8.04772 5.96449 7.20825 7.00002 7.20825C7.937 7.20825 8.71346 7.89553 8.85276 8.79347C8.95713 8.71964 9.06732 8.65233 9.18336 8.59155C9.65003 8.33599 10.1778 8.20821 10.7667 8.20821C11.3223 8.20821 11.8278 8.33599 12.2834 8.59155C12.6651 8.7964 12.9806 9.07538 13.2297 9.42849C13.499 9.08483 13.828 8.8114 14.2167 8.60821C14.7056 8.34154 15.25 8.20821 15.85 8.20821C16.45 8.20821 16.9889 8.33599 17.4667 8.59155C17.9445 8.83599 18.3223 9.19154 18.6 9.65821C18.8778 10.1249 19.0167 10.6804 19.0167 11.3249V14.3979C19.4863 14.7387 19.7917 15.292 19.7917 15.9165C19.7917 16.9521 18.9523 17.7915 17.9167 17.7915C16.8812 17.7915 16.0417 16.9521 16.0417 15.9165C16.0417 15.2846 16.3543 14.7257 16.8334 14.386V11.6749C16.8334 11.2082 16.6834 10.8471 16.3834 10.5915C16.0945 10.3249 15.7334 10.1915 15.3 10.1915C15.0223 10.1915 14.7611 10.2527 14.5167 10.3749C14.2834 10.486 14.1 10.6527 13.9667 10.8749C13.8334 11.0971 13.7667 11.3638 13.7667 11.6749V14.398C14.2363 14.7387 14.5417 15.292 14.5417 15.9165C14.5417 16.9521 13.7022 17.7915 12.6667 17.7915C11.6311 17.7915 10.7917 16.9521 10.7917 15.9165C10.7917 15.2846 11.1043 14.7257 11.5834 14.386V11.6749C11.5834 11.2082 11.4334 10.8471 11.1334 10.5915C10.8445 10.3249 10.4834 10.1915 10.05 10.1915C9.76114 10.1915 9.50003 10.2527 9.2667 10.3749C9.03337 10.486 8.85003 10.6527 8.7167 10.8749C8.58336 11.0971 8.5167 11.3638 8.5167 11.6749V14.398C8.9863 14.7387 9.29169 15.292 9.29169 15.9165C9.29169 16.9521 8.45222 17.7915 7.41669 17.7915C6.38115 17.7915 5.54169 16.9521 5.54169 15.9165C5.54169 15.2846 5.85432 14.7257 6.33336 14.386V10.8363Z" fill="black"/>
</g>
<defs>
<clipPath id="clip0_11723_47667">
<path d="M0 12.5C0 8.30236 0 6.20354 0.768086 4.57956C1.55942 2.90642 2.90642 1.55942 4.57956 0.768086C6.20354 0 8.30236 0 12.5 0C16.6976 0 18.7965 0 20.4204 0.768086C22.0936 1.55942 23.4406 2.90642 24.2319 4.57956C25 6.20354 25 8.30236 25 12.5C25 16.6976 25 18.7965 24.2319 20.4204C23.4406 22.0936 22.0936 23.4406 20.4204 24.2319C18.7965 25 16.6976 25 12.5 25C8.30236 25 6.20354 25 4.57956 24.2319C2.90642 23.4406 1.55942 22.0936 0.768086 20.4204C0 18.7965 0 16.6976 0 12.5Z" fill="white"/>
</clipPath>
</defs>
</svg>
