<?xml version="1.0" encoding="UTF-8" standalone="no"?>
<svg
   width="280mm"
   height="75mm"
   viewBox="0 0 280 75"
   version="1.1"
   xmlns="http://www.w3.org/2000/svg"
   xmlns:svg="http://www.w3.org/2000/svg">
  <defs
     id="defs29744">
    <clipPath
       clipPathUnits="userSpaceOnUse"
       id="clipPath24278">
      <path
         style="display:none;fill:#000000;fill-opacity:1;stroke:none;stroke-width:1.3;stroke-linecap:square;stroke-dasharray:none;stroke-opacity:1;paint-order:stroke fill markers"
         d="m 1138.2483,247.64052 h 36.8672 c -1.0393,-9.39835 -5.7935,-16.56463 -18.1841,-16.66007 -12.3805,0.29038 -16.9223,7.68203 -18.6831,16.66007 z"
         id="path24280" />
      <path
         id="lpe_path-effect24282"
         style="fill:#000000;fill-opacity:1;stroke:none;stroke-width:1.3;stroke-linecap:square;stroke-dasharray:none;stroke-opacity:1;paint-order:stroke fill markers"
         class="powerclip"
         d="m 1113.1743,209.8392 h 87.156 v 90.14036 h -87.156 z m 25.074,37.80132 h 36.8672 c -1.0393,-9.39835 -5.7935,-16.56463 -18.1841,-16.66007 -12.3805,0.29038 -16.9223,7.68203 -18.6831,16.66007 z" />
    </clipPath>
    <clipPath
       clipPathUnits="userSpaceOnUse"
       id="clipPath24286">
      <ellipse
         style="display:none;fill:#000000;fill-opacity:1;stroke:none;stroke-width:1.3893;stroke-linecap:square;stroke-dasharray:none;stroke-opacity:1;paint-order:stroke fill markers"
         id="ellipse24288"
         cx="1301.9592"
         cy="254.76552"
         rx="20.392851"
         ry="23.392851"
         d="m 1322.3521,254.76552 a 20.392851,23.392851 0 0 1 -20.3929,23.39285 20.392851,23.392851 0 0 1 -20.3928,-23.39285 20.392851,23.392851 0 0 1 20.3928,-23.39285 20.392851,23.392851 0 0 1 20.3929,23.39285 z" />
      <path
         id="lpe_path-effect24290"
         style="fill:#000000;fill-opacity:1;stroke:none;stroke-width:1.3893;stroke-linecap:square;stroke-dasharray:none;stroke-opacity:1;paint-order:stroke fill markers"
         class="powerclip"
         d="m 1255.8905,209.44488 h 91.0761 v 127.47689 h -91.0761 z m 66.4616,45.32064 a 20.392851,23.392851 0 0 0 -20.3929,-23.39285 20.392851,23.392851 0 0 0 -20.3928,23.39285 20.392851,23.392851 0 0 0 20.3928,23.39285 20.392851,23.392851 0 0 0 20.3929,-23.39285 z" />
    </clipPath>
  </defs>
  <g
     id="layer1">
    <circle
       id="white-circle-bg"
       cy="37.655361"
       fill="#ffffff"
       r="24.694445"
       cx="39.078133"
       style="stroke-width:0.352778" />
    <g
       visibility="visible"
       id="logo"
       stroke="none"
       transform="matrix(0.03527778,0,0,-0.03527778,2.0364833,74.697039)"
       fill="#28abe1">
      <path
         d="M 898,2090 C 669,2053 473,1954 310,1790 169,1650 76,1485 27,1291 -3,1168 -3,932 27,809 76,615 169,450 310,310 450,169 615,76 809,27 c 123,-30 359,-30 482,0 194,49 359,142 499,283 141,140 234,305 283,499 30,123 30,359 0,482 -49,194 -142,359 -283,499 -139,140 -306,235 -494,281 -93,23 -309,33 -398,19 M 738,1496 c 15,-8 35,-23 45,-34 17,-19 21,-19 65,-5 57,18 132,11 177,-16 33,-19 34,-19 96,0 172,54 294,24 352,-84 20,-39 22,-57 25,-256 l 3,-213 34,-34 c 60,-60 67,-136 18,-202 -89,-120 -273,-59 -273,92 0,51 27,109 56,120 13,5 15,34 12,212 l -3,206 -28,24 c -32,27 -84,31 -152,11 l -39,-12 3,-215 c 3,-209 3,-214 26,-232 58,-45 67,-150 18,-209 -94,-112 -273,-54 -273,88 0,53 11,83 44,113 l 26,25 v 208 c 0,194 -1,208 -20,227 -20,20 -63,26 -106,14 -11,-3 -29,-21 -39,-40 -10,-20 -27,-40 -37,-45 -16,-9 -18,-26 -18,-190 0,-149 2,-181 15,-185 28,-11 55,-69 55,-120 0,-151 -184,-212 -273,-92 -49,66 -42,142 18,203 l 35,34 v 161 161 l -35,34 c -77,77 -64,190 29,246 37,22 106,25 144,5"
         id=""
         visibility="visible" />
      <path
         d="m 610,1414.5 c -59,-59 -26,-152 54,-152 48,0 65,8 81,41 33,62 2,125 -67,136 -32,5 -41,1 -68,-25"
         visibility="visible"
         id="path1" />
      <path
         d="m 605,805 c -36,-36 -34,-88 5,-127 27,-26 36,-30 68,-25 43,7 82,46 82,83 0,32 -25,80 -45,88 -37,14 -86,6 -110,-19"
         visibility="visible"
         id="path20666" />
      <path
         d="m 986,799 c -49,-58 -20,-134 56,-146 32,-5 41,-1 68,25 61,61 26,152 -59,152 -32,0 -44,-6 -65,-31"
         visibility="visible"
         id="path20668" />
      <path
         d="m 1382,823 c -18,-7 -42,-57 -42,-87 0,-37 39,-76 82,-83 32,-5 41,-1 68,25 60,61 26,153 -57,151 -21,0 -44,-3 -51,-6"
         visibility="visible"
         id="path20670" />
    </g>
    <path
       style="fill:#000000;fill-opacity:1;stroke:none;stroke-width:0.654001;stroke-linecap:square;stroke-opacity:1;paint-order:stroke fill markers"
       d="m 93.375203,55.810549 6.922677,0.0139 v -22.40506 l 9.29499,22.41893 h 5.24404 l 9.21699,-22.43326 v 22.42512 h 6.91589 l 0.004,-34.47397 h -7.80376 l -10.96758,25.65882 -10.96462,-25.66617 h -7.847807 z"
       id="path20794-9" />
    <path
       style="fill:#000000;fill-opacity:1;stroke:none;stroke-width:1.3;stroke-linecap:square;stroke-dasharray:none;stroke-opacity:1;paint-order:stroke fill markers"
       d="m 1193.4206,269.34126 h -21.1891 c -6.1391,15.40867 -33.4049,11.73673 -34.1472,-8.56462 l 56.6478,0.0709 c 3.3302,-21.94542 -6.992,-44.68603 -37.294,-46.00834 -21.9685,0.59711 -38.2834,12.7443 -39.2638,40.5429 1.3662,27.15937 18.2678,39.43777 38.5964,39.59746 24.0323,-0.35139 32.5106,-14.02514 36.6499,-25.6383 z"
       id="path21885-1"
       clip-path="url(#clipPath24278)"
       transform="matrix(0.35277777,0,0,0.35277777,-258.48448,-47.780806)" />
    <path
       style="fill:#000000;fill-opacity:1;stroke:none;stroke-width:0.458611;stroke-linecap:square;stroke-dasharray:none;stroke-opacity:1;paint-order:stroke fill markers"
       d="m 175.17256,32.737969 v -4.26724 h -6.91589 l 0.004,27.35942 6.91536,0.001 0.012,-14.03421 c -0.0672,-4.88993 2.83898,-6.9386 8.38398,-6.46576 l 0.004,-7.25744 c -2.90072,-0.20867 -5.74675,0.53939 -8.39986,4.66381 z"
       id="path21941-8" />
    <path
       style="fill:#000000;fill-opacity:1;stroke:none;stroke-width:1.3;stroke-linecap:square;stroke-dasharray:none;stroke-opacity:1;paint-order:stroke fill markers"
       d="m 1322.2327,216.14052 -0.2695,11.05078 c -19.0319,-24.96437 -60.9877,-11.67784 -61.07,26.08244 -0.3437,31.19415 32.0772,60.00977 61.0348,28.81991 0.128,13.20151 0.1523,22.81422 -5.8106,28.07479 -9.7803,8.62836 -27.26,5.87528 -32.1581,-6.93417 h -19.4063 c 3.4677,14.72044 9.2359,28.22791 39.75,28.6875 27.4291,-1.14402 36.6211,-16.7401 37.6406,-38.8125 l 0.023,-76.96977 z"
       id="path22669-4"
       clip-path="url(#clipPath24286)"
       transform="matrix(0.35277777,0,0,0.35277777,-258.48448,-47.780806)" />
    <path
       style="fill:#000000;fill-opacity:1;stroke:none;stroke-width:0.458611;stroke-linecap:square;stroke-dasharray:none;stroke-opacity:1;paint-order:stroke fill markers"
       d="m 221.70772,28.418709 6.82873,0.0468 0.0935,27.40849 -6.92228,-0.0468 z"
       id="path22671-0" />
    <path
       style="fill:#000000;fill-opacity:1;stroke:none;stroke-width:0.458611;stroke-linecap:square;stroke-dasharray:none;stroke-opacity:1;paint-order:stroke fill markers"
       d="m 236.18371,55.827199 h 6.99245 v -21.70229 l 4.79414,0.0234 -0.0233,-5.68282 h -4.77076 c -0.52828,-3.82088 1.15373,-5.36016 4.49012,-5.19171 l -0.0233,-5.823128 c -7.7906,-0.11097 -11.89842,3.293458 -11.45917,11.038228 h -3.13376 v 5.63604 h 3.11037 z"
       id="path22675-9" />
    <path
       style="fill:#000000;fill-opacity:1;stroke:none;stroke-width:0.458611;stroke-linecap:square;stroke-dasharray:none;stroke-opacity:1;paint-order:stroke fill markers"
       d="m 249.30331,28.442089 h 7.74079 l 7.09182,19.14282 7.1272,-19.11615 7.37525,0.0331 -16.94043,40.28125 h -7.39002 l 5.94007,-13.6107 z"
       id="path23403-5" />
    <circle
       style="fill:#000000;fill-opacity:1;stroke:none;stroke-width:0.458611;stroke-linecap:square;stroke-dasharray:none;stroke-opacity:1;paint-order:stroke fill markers"
       id="path23457-8"
       cx="225.15945"
       cy="21.325001"
       r="4.1671872" />
  </g>
</svg>
